<svg version="1" xmlns="http://www.w3.org/2000/svg" width="346.667" height="346.667" viewBox="0 0 260.000000 260.000000"><path d="M161.7 53.1c-10.3 2.5-20.7 7.4-28.9 13.7l-6.7 5.2-38.8.2-38.8.3-.1 3.2c0 2.1.5 3.3 1.5 3.5.9.2 16.8.3 35.4.2 18.5 0 33.7.1 33.7.4 0 .2-1.3 2.2-2.9 4.5-1.5 2.3-3.8 6.2-5.1 8.7-1.2 2.5-2.4 4.7-2.7 5-.2.3-8.9.5-19.1.6-10.3.1-19 .2-19.4.3-.5 0-.8 1.6-.8 3.5v3.5l17.6-.1c9.6 0 17.7.2 18 .4.2.3-.2 3.4-1.1 6.9-.8 3.5-1.5 7.6-1.5 9.1v2.8H58.4v3.5l.1 3.5 6 .1c3.3 0 13.1 0 21.8-.1 12 0 15.7.3 15.8 1.2.2 2.7 1 7.5 2 12.1.6 2.6.9 5.1.5 5.4-.3.3-7.2.7-15.3.7l-14.8.1-.3 3.5-.3 3.5h33.8l3.2 6.1c1.7 3.3 5.4 8.8 8.1 12.2l5 6.2H22v7.5l55.4-.1 55.3-.2 4.4 3c19.4 13.3 46.5 16.3 69.5 7.7 12.2-4.6 24.8-13.9 33-24.4 17.5-22.3 21.2-53.2 9.4-79.1-7.8-17.2-25-33.8-42.8-41.3-12.2-5.1-30.6-6.3-44.5-3zm34.3 7.4c24.3 6.3 43.8 25.6 50.5 50 2.2 8 2.6 22.3.8 30.9-10.1 48.9-66.8 71.7-107.8 43.6-14.5-10-26.5-28.4-29.1-44.8-6.1-38 18.4-73.5 55.6-80.6 8.5-1.6 21.8-1.2 30 .9z"/><path d="M175.1 62.3c-3.1 3.1 1.2 7.6 5.2 5.5 1.8-.9 2.3-4.3.7-5.3-2-1.2-4.8-1.3-5.9-.2zM191.7 65.7c-.9 2.1-.8 2.7.8 3.9 3.5 2.6 7.5 1.1 7.5-2.7 0-2.1-.7-2.6-4.4-3.3-2.2-.4-2.9 0-3.9 2.1zM154.3 66c-2.7 1.1-2.9 3.2-.7 5.4 1.8 1.9 1.6 1.9 4.8.6 3.1-1.1 3.5-4.5.7-6-2.2-1.1-1.9-1.1-4.8 0zM211.9 75.1c-.9 1.8-.7 2.5.9 4.1 2.3 2.4 5.7 1.7 6.5-1.2.5-2.1-2.1-5-4.6-5-.9 0-2.1 1-2.8 2.1zM135 78.5c-1.9 2.3-.8 5 2.2 5.3 3 .4 5.2-2.5 4.2-5.2-.8-2-4.8-2.1-6.4-.1zM228.6 89.5c-2.1 2.2-2 3.4.5 5.6 1.7 1.4 2.6 1.6 4.1.8 2.4-1.3 2-4.7-.8-6.6-1.9-1.2-2.4-1.2-3.8.2zM120.8 95.2c-2 3.7-1.8 4.8.9 6.1 2.2 1 2.8.8 4.4-1.1 1.8-2.3 1.6-5-.5-6.4-1.9-1.3-3.5-.9-4.8 1.4zM237.1 110.4c-1.8 2.2.3 6.6 3.3 6.6 2.9 0 3.9-2.1 2.6-5.5-1-2.8-4.1-3.3-5.9-1.1zM113.8 117.5c-.8 1.9-.8 2.8.2 4 1.8 2.2 4.9 1.8 5.9-.8 1.9-5-3.9-8.1-6.1-3.2zM238.4 132.4c-1.1 2.9.1 6.1 2.3 6.4 1.7.3 2.6-.3 3.3-2.2.5-1.4.7-3.3.4-4.1-.8-1.9-5.3-2-6-.1zM115.7 137.2c-3.4 1.8-1.5 7.8 2.5 7.8 2.3 0 3.2-2.2 2.4-5.4-.7-2.8-2.6-3.8-4.9-2.4zM232.6 153.6c-2 1.9-2 3.8-.2 5.3s4.1.5 5.4-2.3c1.8-4-2.1-6.2-5.2-3zM123.6 158.5c-2.3 2.3-2 4.2 1 6.1 2.4 1.6 2.6 1.6 4.2 0 1.5-1.5 1.5-1.9.2-4.3-1.9-3.3-3.3-3.8-5.4-1.8zM219.7 170.8c-2.1 2.3-2.1 3.6-.2 5.2 1.2 1 2 .9 4-.4 3-2 3.2-4.1.6-5.6-2.5-1.3-2.5-1.3-4.4.8zM136.9 174.6c-1.5 1.8-.8 4.4 1.8 6.1 1.9 1.3 2.4 1.2 4.2-.6 1.7-1.7 1.9-2.6 1.2-4-1.3-2.3-5.7-3.3-7.2-1.5zM201.8 183.1c-2.2 1.2-2.4 5.5-.3 6.3.8.3 2.7.1 4.1-.4 2-.8 2.5-1.6 2.2-3.8-.3-3-3-3.9-6-2.1zM157.1 185.9c-1.2 2.2-.5 5.1 1.3 5.2.6 0 1.9.2 2.8.4.9.2 2.4-.2 3.2-.8 1.3-1 1.4-1.6.3-3.6-1.6-3.2-6.2-3.9-7.6-1.2zM178.9 188.6c-1.5 1.8-.1 5.4 2.1 5.4 3.1 0 5-1.1 5-3 0-3.4-4.9-5-7.1-2.4zM6.2 75.6c0 3.5.2 3.6 5.3 3.6 5.3 0 5.5-.1 5.5-3.6v-3.5H6.2v3.5zM27.2 75.5c-.1 2.4.3 3.5 1.3 3.6 8.8.6 9 .6 9.3-3.4l.3-3.7H27.3l-.1 3.5zM48.9 98.2c0 .2-.2 1.7-.4 3.5-.3 2.9-.1 3.1 3.4 3.5 6.1.5 7.1 0 7.1-3.8V98h-5c-2.7 0-5 .1-5.1.2zM32.9 151.6c-.5 6.1-.7 5.9 4.9 5.9l5.2.1v-7.4h-5c-3.7-.1-5 .3-5.1 1.4zM53.7 153.2c-.2 1.8 0 3.6.5 3.9.7.5 7.7.5 9.8 0 .3 0 .5-1.5.5-3.3-.1-3.1-.2-3.2-5.2-3.5-5-.3-5.1-.3-5.6 2.9zM1 185.5v3.5h10.7l-.1-3.5-.1-3.5H1v3.5z"/></svg>